<svg id="Layer_1" data-name="Layer 1" xmlns="http://www.w3.org/2000/svg" xmlns:xlink="http://www.w3.org/1999/xlink" viewBox="0 0 292.5017 104.0342"><defs><style>.cls-1{fill:url(#linear-gradient);}.cls-2{fill:#fff;}.cls-3{fill:#242d38;}</style><linearGradient id="linear-gradient" x1="-344.60668" y1="541.71117" x2="-348.1861" y2="538.13174" gradientTransform="matrix(32, 0, 0, -32, 11137.58586, 17328.61941)" gradientUnits="userSpaceOnUse"><stop offset="0.247" stop-color="#17a1e5"/><stop offset="1" stop-color="#1785e5"/></linearGradient></defs><g id="Group_183" data-name="Group 183"><circle id="Ellipse_51" data-name="Ellipse 51" class="cls-1" cx="52.0171" cy="52.0171" r="52.0171"/><path id="Path_846" data-name="Path 846" class="cls-2" d="M98.17576,77.61589c.57872-1.04691,1.08591-2.13272,1.593-3.2219q-4.04276-.28782-8.40726-.53972V42.84886L77.1218,35.43V20.47515c.04554-1.73289-1.24514-1.95057-1.24514-1.95057H56.33125c-1.268.04227-1.1119,1.44338-1.1119,1.44338V43.09273L50.19968,48.47V36.21021l-5.4195-10.58542a1.44039,1.44039,0,0,0-2.39277,0l-5.94623,10.4229V72.96034l-2.30506.06509h.04881V51.98118A1.91493,1.91493,0,0,0,32.35135,50.18H15.95948a2.17829,2.17829,0,0,0-2.30828,1.90512V74.03642h.05854c-3.01047.20816-5.85193.43893-8.63486.67943.45193.95266.8908,1.91484,1.39794,2.835,11.60306-.51036,25.51441-.90047,41.98425-1.01437C67.06629,76.39674,83.767,76.87139,98.17576,77.61589ZM77.1218,39.03862l10.97563,5.80644V73.67548q-5.257-.27294-10.97563-.47782ZM73.96826,73.09031q-4.08011-.12977-8.39754-.21787V44.64664l8.39754-5.33835ZM50.177,53.51246l8.32928-9.39881V22.05524H73.96508v13.3293L62.37174,42.68V72.80775q-6.27449-.1009-12.19478-.07144ZM31.23945,73.11968q-7.30509.26341-13.91457.6828V53.84424H31.23945ZM39.44838,36.919,43.379,30.38769,46.9129,36.919V52.04627l-7.47742,8.86246Zm7.59776,35.84628c-2.51956.01945-4.98068.06509-7.39943.11708V65.84387L47.04614,57.313Z" transform="translate(0 0)"/></g><path class="cls-3" d="M123.99907,54.58163v-5.469a.5.5,0,0,1,.1151-.31915l25.76875-31.07677H124.87741a.5.5,0,0,1-.5-.5V11.347a.5.5,0,0,1,.5-.5H159.0229a.5.5,0,0,1,.5.5v5.53288a.5.5,0,0,1-.1154.3195l-25.76381,31.013H159.0229a.5.5,0,0,1,.5.5v5.8693a.5.5,0,0,1-.5.5H124.49907A.5.5,0,0,1,123.99907,54.58163Z" transform="translate(0 0)"/><path class="cls-3" d="M235.70755,55.58687a15.66635,15.66635,0,0,1-14.473-8.74942,19.11379,19.11379,0,0,1-2.02653-8.76011,19.07361,19.07361,0,0,1,2.02839-8.79683,15.711,15.711,0,0,1,14.47112-8.71317,15.254,15.254,0,0,1,7.30482,1.66167c.29561.15943.58658.32954.87011.50849l1.89732,1.19826V21.57212a.5.5,0,0,1,.5-.5h6.18489a.5.5,0,0,1,.5.5V54.58163a.5.5,0,0,1-.5.5H246.2798a.5.5,0,0,1-.5-.5V52.2245l-1.89546,1.19268c-.28353.17848-.57636.34813-.8729.50849A15.253,15.253,0,0,1,235.70755,55.58687Zm.6312-28.27619a9.30016,9.30016,0,0,0-8.74477,5.3071,12.93561,12.93561,0,0,0,.00186,10.89076,9.35405,9.35405,0,0,0,3.41536,3.89178,9.46442,9.46442,0,0,0,5.32755,1.44321,9.26861,9.26861,0,0,0,5.27829-1.43066A9.16461,9.16461,0,0,0,244.8818,43.529a13.565,13.565,0,0,0,.00186-10.93166,8.85489,8.85489,0,0,0-8.54491-5.28665Z" transform="translate(0 0)"/><rect class="cls-3" x="166.68549" y="23.28457" width="7.1849" height="31.79706" rx="0.5"/><circle class="cls-3" cx="170.27747" cy="14.42499" r="3.57804"/><path class="cls-3" d="M197.79929,55.58687a15.23445,15.23445,0,0,1-7.30389-1.66167c-.29747-.16082-.5903-.33093-.87476-.50895l-1.8936-1.18664v2.352a.5.5,0,0,1-.5.5h-6.184a.5.5,0,0,1-.5-.5V11.347a.5.5,0,0,1,.5-.5h6.184a.5.5,0,0,1,.5.5V23.93529l1.89825-1.19779q.42529-.26843.86918-.50756a15.24079,15.24079,0,0,1,7.30482-1.6626,15.71373,15.71373,0,0,1,14.472,8.71317,19.09294,19.09294,0,0,1,2.02746,8.79683,19.12772,19.12772,0,0,1-2.0256,8.76011,15.669,15.669,0,0,1-14.47391,8.74942Zm-.6312-28.27619a8.93749,8.93749,0,0,0-8.544,5.28758A13.56785,13.56785,0,0,0,188.625,43.529a9.07038,9.07038,0,0,0,3.29079,3.87831,9.16312,9.16312,0,0,0,5.25226,1.43623,9.5615,9.5615,0,0,0,5.35265-1.439A9.44758,9.44758,0,0,0,205.911,43.509a12.93013,12.93013,0,0,0,.00279-10.8903,9.21876,9.21876,0,0,0-8.7457-5.308Z" transform="translate(0 0)"/><path class="cls-3" d="M123.99907,93.02009V64.39919h10.31155a12.72605,12.72605,0,0,1,5.62021,1.12917,7.68627,7.68627,0,0,1,3.3535,3.00832,8.9663,8.9663,0,0,1,.07322,8.549,7.65781,7.65781,0,0,1-3.25518,3.08416,12.35767,12.35767,0,0,1-5.79175,1.20395h-5.94028V93.02009Zm4.37127-14.84392h5.67983a6.09562,6.09562,0,0,0,4.32629-1.386,5.08462,5.08462,0,0,0,1.48533-3.86029c0-3.411-2.06377-5.28967-5.81162-5.28967h-5.67983Z" transform="translate(0 0)"/><path class="cls-3" d="M172.12689,93.321a11.883,11.883,0,0,1-5.84057-1.44655,10.28919,10.28919,0,0,1-4.02869-4.04335,12.29241,12.29241,0,0,1-1.46667-6.10281,12.01681,12.01681,0,0,1,1.5249-6.08782,10.53308,10.53308,0,0,1,4.13018-4.03691,12.78416,12.78416,0,0,1,11.78223.01988,10.54347,10.54347,0,0,1,4.11654,4.05083,12.03558,12.03558,0,0,1,1.50434,6.09293,11.75614,11.75614,0,0,1-1.56463,6.07991,10.78475,10.78475,0,0,1-4.19609,4.0436A12.3585,12.3585,0,0,1,172.12689,93.321Zm.11982-19.557a6.6437,6.6437,0,0,0-4.992,2.10347,8.21038,8.21038,0,0,0-2.00569,5.86839,8.32384,8.32384,0,0,0,1.93568,5.86773,6.4994,6.4994,0,0,0,4.94822,2.12861,7.196,7.196,0,0,0,3.5224-.90513,6.70473,6.70473,0,0,0,2.66987-2.75016,9.00807,9.00807,0,0,0,.979-4.31733,8.09851,8.09851,0,0,0-2.03816-5.88254A6.7827,6.7827,0,0,0,172.24671,73.764Z" transform="translate(0 0)"/><path class="cls-3" d="M264.1025,93.08211c-4.6631-.00787-6.83211-2.11453-6.82449-6.6291l.01868-11.43409-2.86816-.00484.00789-4.34559,2.86816.00483.01-5.91921,4.41415.00744-.01,5.91922,5.389.0091-.00789,4.3456-5.389-.0091-.01875,10.61469c0,1.55173.19357,2.03345.77955,2.54616.69844.61111,1.47345.5553,2.63556.55726l1.96859.00332L267.07,93.08712Z" transform="translate(0 0)"/><polygon class="cls-3" points="275.126 101.127 278.374 93.02 269.254 70.729 274.203 70.737 281.141 87.762 287.91 70.76 292.502 70.768 279.677 101.134 275.126 101.127"/><path class="cls-3" d="M146.82631,93.02011V78.14277a8.05023,8.05023,0,0,1,5.28732-6.95665,9.50127,9.50127,0,0,1,3.24533-.51246h4.4977v4.344h-4.6073a4.09544,4.09544,0,0,0-3.55607,2.1935,4.88778,4.88778,0,0,0-.523,2.31582V93.02011Z" transform="translate(0 0)"/><path class="cls-3" d="M199.35936,70.0075a10.698,10.698,0,0,0-7.93188,3.55905l.00273-1.22177a1.021,1.021,0,0,0-1.01931-1.02331l-2.32877-.00393a1.021,1.021,0,0,0-1.02276,1.01927l-.04951,28.6426,4.37135.00737.01894-11.22006a10.698,10.698,0,0,0,7.91982,3.5858c6.08762.01027,11.03136-5.20738,11.04224-11.65391S205.447,70.01777,199.35936,70.0075Zm-.577,19.09177a7.4324,7.4324,0,1,1,7.0196-7.40836A7.22229,7.22229,0,0,1,198.78239,89.09927Z" transform="translate(0 0)"/><path class="cls-3" d="M235.66848,81.33377a11.91437,11.91437,0,0,0-1.38242-5.825,9.62349,9.62349,0,0,0-3.86913-3.86213,12.8222,12.8222,0,0,0-11.62532.02015,9.81968,9.81968,0,0,0-3.92827,3.997,12.84411,12.84411,0,0,0-1.42873,6.15335,12.60814,12.60814,0,0,0,1.428,6.11113,10.04577,10.04577,0,0,0,3.96183,4.03645,11.75984,11.75984,0,0,0,5.81542,1.44491,10.88709,10.88709,0,0,0,6.744-2.05391,10.19169,10.19169,0,0,0,3.304-4.1691l-4.83246-.00815a5.76651,5.76651,0,0,1-5.33954,2.9026,6.48349,6.48349,0,0,1-4.53166-1.71059,6.83667,6.83667,0,0,1-2.09151-4.64886l-.07577-.9279,17.781.03C235.64366,82.36507,235.66758,81.86562,235.66848,81.33377Zm-15.54266-6.20925a6.3817,6.3817,0,0,1,4.37389-1.57675,6.86909,6.86909,0,0,1,4.5965,1.62588,5.63808,5.63808,0,0,1,1.96385,4.19323L217.971,79.3448A6.83834,6.83834,0,0,1,220.12582,75.12452Z" transform="translate(0 0)"/><path class="cls-3" d="M238.672,93.02011V78.14277a8.05023,8.05023,0,0,1,5.28732-6.95665,9.50128,9.50128,0,0,1,3.24534-.51246h4.49769v4.344h-4.6073a4.09544,4.09544,0,0,0-3.55607,2.1935,4.88778,4.88778,0,0,0-.523,2.31582V93.02011Z" transform="translate(0 0)"/></svg>